<svg width="35" height="15" viewBox="0 0 35 15" fill="none" xmlns="http://www.w3.org/2000/svg">
<path fill-rule="evenodd" clip-rule="evenodd" d="M6.95052 2.48685C7.32952 2.00985 7.58752 1.36984 7.51953 0.714844C6.96352 0.742844 6.28653 1.08284 5.89353 1.56084C5.54153 1.96984 5.22953 2.63684 5.31053 3.26384C5.93453 3.31784 6.55752 2.95085 6.95052 2.48685ZM7.50852 3.38484C6.95752 3.35184 6.45753 3.54985 6.05253 3.71085C5.79153 3.81385 5.57054 3.90184 5.40054 3.90184C5.21454 3.90184 4.98453 3.80984 4.72653 3.70784C4.38653 3.57284 3.99752 3.41784 3.59052 3.42584C2.65852 3.43884 1.79354 3.96884 1.32054 4.81184C0.347535 6.49684 1.06353 8.99684 2.00953 10.3698C2.46953 11.0488 3.02253 11.7968 3.75253 11.7698C4.07153 11.7578 4.30154 11.6598 4.53854 11.5598C4.81354 11.4428 5.10052 11.3218 5.54952 11.3218C5.97852 11.3218 6.25153 11.4388 6.51353 11.5518C6.76353 11.6598 7.00354 11.7629 7.35954 11.7569C8.11654 11.7429 8.58953 11.0769 9.04853 10.3969C9.54853 9.66285 9.76854 8.95285 9.80154 8.84685L9.80554 8.83484C9.80554 8.83484 9.79752 8.83084 9.78652 8.82584C9.61752 8.74684 8.34553 8.15984 8.33253 6.59184C8.31953 5.27584 9.33453 4.60885 9.50053 4.49985C9.51153 4.49285 9.51852 4.48785 9.52152 4.48485C8.87352 3.52085 7.85952 3.41184 7.50852 3.38484ZM16.5395 1.49385C18.5075 1.49385 19.8775 2.85785 19.8775 4.84285C19.8775 6.83485 18.4795 8.20584 16.4905 8.20584H14.3115V11.6888H12.7375V1.49385H16.5395ZM14.3075 6.87784H16.1135C17.4845 6.87784 18.2645 6.13584 18.2645 4.84984C18.2645 3.56384 17.4845 2.82884 16.1205 2.82884H14.3075V6.87784ZM23.0785 7.40685C21.2515 7.51985 20.2605 8.26884 20.2605 9.57584C20.2605 10.8898 21.2795 11.7658 22.7415 11.7658C23.7325 11.7658 24.6465 11.2649 25.0605 10.4659H25.0955V11.6879H26.5505V6.61584C26.5505 5.14584 25.3765 4.19984 23.5775 4.19984C21.9055 4.19984 20.6685 5.15984 20.6265 6.48184H22.0455C22.1655 5.85284 22.7415 5.44284 23.5355 5.44284C24.4985 5.44284 25.0395 5.89485 25.0395 6.72185V7.28685L23.0785 7.40685ZM25.0385 8.34584V8.91785C25.0385 9.87185 24.2305 10.5568 23.1625 10.5568C22.3265 10.5568 21.7925 10.1538 21.7925 9.53284C21.7925 8.88984 22.3045 8.52185 23.2885 8.45885L25.0385 8.34584ZM27.8885 13.1918V14.4138C27.9935 14.4418 28.3805 14.4568 28.4995 14.4568C30.0315 14.4568 30.7555 13.8698 31.3885 12.0828L34.1495 4.28984H32.5475L30.6925 10.3088H30.6575L28.8015 4.28984H27.1575L29.8205 11.7078L29.6805 12.1599C29.4415 12.9239 29.0475 13.2198 28.3515 13.2198C28.2255 13.2198 27.9865 13.2058 27.8885 13.1918Z" fill="white"/>
</svg>
