<svg width="10" height="12" viewBox="0 0 10 12" fill="none" xmlns="http://www.w3.org/2000/svg">
<path fill-rule="evenodd" clip-rule="evenodd" d="M1.95326 5.05135V3.72334C1.95326 1.88934 3.48727 0.402344 5.37827 0.402344C7.26927 0.402344 8.80226 1.88934 8.80226 3.72334V5.05135H9.14426C9.52326 5.05135 9.82927 5.34835 9.82927 5.71535V9.70035C9.82927 10.4333 9.21627 11.0284 8.46027 11.0284H2.29626C1.53926 11.0284 0.92627 10.4333 0.92627 9.70035V5.71535C0.92627 5.34835 1.23327 5.05135 1.61127 5.05135H1.95326ZM5.37827 6.71135C4.99927 6.71135 4.69327 7.00835 4.69327 7.37535V8.70335C4.69327 9.07035 4.99927 9.36835 5.37827 9.36835C5.75627 9.36835 6.06326 9.07035 6.06326 8.70335V7.37535C6.06326 7.00835 5.75627 6.71135 5.37827 6.71135ZM7.43227 5.05135V3.72334C7.43227 2.62234 6.51227 1.73035 5.37827 1.73035C4.24327 1.73035 3.32326 2.62234 3.32326 3.72334V5.05135H7.43227Z" fill="#1D3944"/>
</svg>
