<svg width="10" height="101" viewBox="0 0 10 101" fill="none" xmlns="http://www.w3.org/2000/svg">
<mask id="mask0_4003_11878" style="mask-type:alpha" maskUnits="userSpaceOnUse" x="0" y="0" width="10" height="101">
<g clip-path="url(#clip0_4003_11878)">
<path d="M9.97656 0.771484L5.21397 7.91537L0.451383 0.771484M9.97656 13.8686L5.21397 21.0125L0.451383 13.8686M9.97656 26.9657L5.21397 34.1096L0.451383 26.9657M9.97656 40.0629L5.21397 47.2067L0.451383 40.0629M9.97656 53.16L5.21397 60.3039L0.451383 53.16M9.97656 66.2571L5.21397 73.401L0.451383 66.2571M9.97656 79.3542L5.21397 86.4981L0.451383 79.3542M9.97656 92.4513L5.21397 99.5952L0.451383 92.4513M9.97656 105.548L5.21397 112.692L0.451383 105.548M9.97656 118.646L5.21397 125.789L0.451383 118.646M9.97656 131.743L5.21397 138.887L0.451383 131.743M9.97656 144.84L5.21397 151.984L0.451383 144.84M9.97656 157.937L5.21397 165.081L0.451383 157.937M9.97656 171.034L5.21397 178.178L0.451383 171.034M9.97656 184.131L5.21397 191.275L0.451383 184.131M9.97656 197.228L5.21397 204.372L0.451383 197.228" fill="black"/>
</g>
</mask>
<g mask="url(#mask0_4003_11878)">
<rect x="9.97656" y="0.771484" width="100.014" height="9.52518" transform="rotate(90 9.97656 0.771484)" fill="url(#paint0_linear_4003_11878)"/>
</g>
<defs>
<linearGradient id="paint0_linear_4003_11878" x1="9.97656" y1="5.53407" x2="109.991" y2="5.53407" gradientUnits="userSpaceOnUse">
<stop stop-color="#3DC9C9"/>
<stop offset="1" stop-color="#0CC2FF"/>
</linearGradient>
<clipPath id="clip0_4003_11878">
<rect width="100.014" height="9.52518" fill="white" transform="matrix(0 1 -1 0 9.97656 0.771484)"/>
</clipPath>
</defs>
</svg>
