<svg width="21" height="21" viewBox="0 0 21 21" fill="none" xmlns="http://www.w3.org/2000/svg">
<path d="M18.162 5.99834C18.0196 5.76417 17.8057 5.5819 17.552 5.47834L5.12697 0.45834C4.93107 0.378485 4.71847 0.348234 4.50807 0.370273C4.29766 0.392312 4.09595 0.465959 3.92085 0.584676C3.74574 0.703393 3.60265 0.863507 3.50428 1.0508C3.40592 1.2381 3.35532 1.44679 3.35697 1.65834V7.85834C3.35697 8.38334 3.67697 8.85834 4.16197 9.05834L7.38197 10.3583L18.162 14.7183C18.292 14.5183 18.362 14.2783 18.357 14.0383V6.67834C18.357 6.43834 18.292 6.19834 18.162 5.99334V5.99834Z" fill="url(#paint0_linear_4003_614)"/>
<path d="M18.1719 5.99805L7.38694 10.358L4.16194 11.658C3.92331 11.7549 3.71912 11.9209 3.57565 12.1348C3.43219 12.3486 3.35602 12.6005 3.35694 12.858V19.068C3.35733 19.2787 3.40932 19.4861 3.50836 19.6721C3.60741 19.8581 3.75049 20.0169 3.92512 20.1348C4.09974 20.2527 4.30058 20.326 4.51008 20.3484C4.71959 20.3707 4.93138 20.3414 5.12694 20.263L17.5569 15.238C17.8069 15.133 18.0219 14.953 18.1619 14.718C18.2919 14.513 18.3619 14.278 18.3569 14.038V6.67805C18.3569 6.43805 18.2969 6.20305 18.1719 5.99805Z" fill="#9966FF"/>
<path d="M18.1667 5.99805L18.2167 6.08305C18.3067 6.26805 18.3567 6.46805 18.3567 6.67805V6.66305V14.038C18.3567 14.278 18.2917 14.513 18.1617 14.718L7.38672 10.358L18.1667 5.99805Z" fill="url(#paint1_linear_4003_614)"/>
<defs>
<linearGradient id="paint0_linear_4003_614" x1="10.857" y1="2.42334" x2="10.857" y2="10.9233" gradientUnits="userSpaceOnUse">
<stop stop-color="#11EFE3"/>
<stop offset="1" stop-color="#21CFE0"/>
</linearGradient>
<linearGradient id="paint1_linear_4003_614" x1="18.3567" y1="5.99805" x2="18.3567" y2="14.718" gradientUnits="userSpaceOnUse">
<stop stop-color="#0048E5"/>
<stop offset="1" stop-color="#9B66FF"/>
</linearGradient>
</defs>
</svg>
