<svg width="27" height="12" viewBox="0 0 27 12" fill="none" xmlns="http://www.w3.org/2000/svg">
<path fill-rule="evenodd" clip-rule="evenodd" d="M4.52284 1.11478C4.52284 0.526777 4.99855 0.0507812 5.58665 0.0507812C6.17475 0.0507812 6.65044 0.526777 6.65044 1.11478C6.65044 1.70278 6.17475 2.17879 5.58665 2.17879C4.99855 2.17879 4.52284 1.70278 4.52284 1.11478ZM0.856445 0.163788H2.75915V11.6838H0.856445V0.163788ZM26.5964 3.46779C25.4984 5.81079 24.2704 7.51479 24.2704 7.51479L26.8824 11.6748H24.6334L23.0244 9.10678C21.4154 10.9488 19.8154 11.8478 18.2764 11.8478C16.3994 11.8478 15.6294 10.5078 15.6294 8.98479C15.6294 8.81479 15.6324 8.60578 15.6344 8.40378V8.40178C15.6364 8.21378 15.6384 8.03278 15.6384 7.89578C15.6384 5.88078 15.4314 5.30979 14.7474 5.40479C13.4414 5.58578 11.4614 8.55278 10.1724 11.6838H8.38245V3.46779H10.2844V7.55779C11.3744 5.73379 12.3694 4.15879 13.9694 3.55379C14.8944 3.19879 15.6814 3.35479 16.0884 3.53679C17.5674 4.18479 17.5584 5.77678 17.5414 7.90378C17.5324 8.18978 17.5324 8.49178 17.5324 8.81178C17.5324 9.59078 17.7484 9.92778 18.2764 9.97978C18.7864 10.0318 19.1754 9.78078 19.1754 9.78078V0.163788H21.0784V8.41478C21.0784 8.41478 22.7304 6.90979 24.4774 3.46779H26.5964ZM6.53784 3.46779H4.63515V11.6838H6.53784V3.46779Z" fill="#1D3944"/>
</svg>
