<svg width="21" height="21" viewBox="0 0 21 21" fill="none" xmlns="http://www.w3.org/2000/svg">
<path d="M4.66674 14.0974L4.65674 14.0824C4.45833 13.8834 4.3347 13.622 4.30674 13.3424C4.28733 13.1655 4.30609 12.9865 4.36174 12.8174C4.38674 12.6774 4.42674 12.5474 4.48174 12.4324L4.52174 12.3474L8.19174 5.85742H19.1167C19.4348 5.86191 19.7395 5.98657 19.9695 6.20637C20.1995 6.42617 20.3378 6.72484 20.3567 7.04242L20.3617 7.12242V18.5824C20.3664 18.9042 20.2478 19.2155 20.0302 19.4525C19.8127 19.6896 19.5127 19.8345 19.1917 19.8574L19.1117 19.8624H10.3567C10.4774 19.7306 10.5683 19.5745 10.6235 19.4046C10.6787 19.2347 10.6969 19.0549 10.6767 18.8774C10.6417 18.5474 10.4617 18.3324 10.2017 18.1424L10.1267 18.0924L4.81674 14.2274L4.74674 14.1774V14.1724L4.81674 14.2224C4.76941 14.1905 4.72431 14.1554 4.68174 14.1174L4.66674 14.1024V14.0974Z" fill="url(#paint0_linear_4003_735)"/>
<path d="M11.882 1.90735C12.232 1.83235 12.587 1.90735 12.877 2.11235L16.157 4.47235C16.3721 4.62688 16.5325 4.84574 16.6152 5.09736C16.6979 5.34898 16.6985 5.62036 16.617 5.87235V5.85735L12.367 18.8574L12.342 18.9574L12.327 18.9974L12.312 19.0424L12.237 19.2024L12.227 19.2224L12.132 19.3674L12.117 19.3874C12.0811 19.4312 12.0427 19.473 12.002 19.5124L11.987 19.5224C11.9015 19.6039 11.8036 19.6714 11.697 19.7224L11.682 19.7374C11.632 19.7624 11.582 19.7874 11.527 19.8024H11.502L11.337 19.8424H11.312C11.2525 19.8521 11.1923 19.8571 11.132 19.8574H2.62197C2.45501 19.8574 2.28969 19.8243 2.13556 19.7601C1.98143 19.6959 1.84153 19.6018 1.72393 19.4833C1.60633 19.3648 1.51336 19.2241 1.45038 19.0695C1.3874 18.9149 1.35565 18.7493 1.35697 18.5824V7.13235C1.35697 6.42735 1.92197 5.85735 2.62197 5.85735H9.15697L11.057 2.50735C11.2174 2.229 11.4788 2.02309 11.787 1.93235L11.877 1.90735H11.882Z" fill="#0073E6"/>
<path d="M16.547 5.85742L12.362 18.8574L12.352 18.9074L12.342 18.9574L12.327 18.9974L12.312 19.0424L12.277 19.1224L12.237 19.2024L12.227 19.2224L12.177 19.2974L12.132 19.3674L12.117 19.3874L12.062 19.4524L12.002 19.5124L11.987 19.5224C11.947 19.5674 11.902 19.6024 11.857 19.6374L11.782 19.6874L11.697 19.7274L11.682 19.7374L11.607 19.7724L11.527 19.8024H11.502L11.422 19.8274L11.372 19.8324L11.422 19.7824C11.622 19.5274 11.717 19.1974 11.677 18.8724C11.642 18.5424 11.462 18.3274 11.202 18.1374L11.127 18.0874L5.81698 14.2224L5.74698 14.1724C5.70056 14.1323 5.65711 14.0888 5.61698 14.0424L5.59698 14.0174C5.57612 13.9948 5.5561 13.9715 5.53698 13.9474L5.52698 13.9274L5.51198 13.9074C5.48013 13.8595 5.45172 13.8094 5.42698 13.7574L5.41198 13.7274C5.38077 13.6598 5.35567 13.5895 5.33698 13.5174L5.33198 13.4824L5.32198 13.4324L5.31698 13.4024C5.29096 13.2341 5.29947 13.0623 5.34198 12.8974L5.35198 12.8524C5.35828 12.8356 5.36495 12.8189 5.37198 12.8024C5.38698 12.6774 5.42198 12.5524 5.47698 12.4324L5.52698 12.3474L9.18698 5.85742H16.542H16.547Z" fill="url(#paint1_linear_4003_735)"/>
<defs>
<linearGradient id="paint0_linear_4003_735" x1="12.3167" y1="6.69742" x2="12.3167" y2="20.6974" gradientUnits="userSpaceOnUse">
<stop offset="0.1" stop-color="#FF80FF"/>
<stop offset="0.39" stop-color="#FF7BF9"/>
<stop offset="0.77" stop-color="#FF6EEA"/>
<stop offset="1" stop-color="#FF62DC"/>
</linearGradient>
<linearGradient id="paint1_linear_4003_735" x1="16.547" y1="14.8224" x2="6.66698" y2="14.8224" gradientUnits="userSpaceOnUse">
<stop stop-color="#0073E6"/>
<stop offset="1" stop-color="#00299C"/>
</linearGradient>
</defs>
</svg>
