<svg width="21" height="21" viewBox="0 0 21 21" fill="none" xmlns="http://www.w3.org/2000/svg">
<path d="M13.8569 1.58742C13.8569 0.907422 13.3069 0.357422 12.6219 0.357422H2.09194C1.76526 0.357419 1.45189 0.486848 1.22042 0.717375C0.98896 0.947903 0.858261 1.26075 0.856938 1.58742V16.6274C0.856361 16.8332 0.907396 17.0357 1.00537 17.2166C1.10335 17.3975 1.24513 17.551 1.41775 17.6629C1.59037 17.7748 1.7883 17.8417 1.99343 17.8573C2.19857 17.873 2.40435 17.8369 2.59194 17.7524L7.69194 15.4874L13.1219 13.0724C13.5719 12.8724 13.8569 12.4374 13.8569 11.9474V1.58742Z" fill="url(#paint0_linear_4003_658)"/>
<path d="M14.1069 19.8574C15.8971 19.8574 17.614 19.1463 18.8799 17.8804C20.1458 16.6145 20.8569 14.8976 20.8569 13.1074C20.8569 11.3172 20.1458 9.60032 18.8799 8.33445C17.614 7.06858 15.8971 6.35742 14.1069 6.35742C12.3167 6.35742 10.5998 7.06858 9.33396 8.33445C8.06809 9.60032 7.35693 11.3172 7.35693 13.1074C7.35693 14.8976 8.06809 16.6145 9.33396 17.8804C10.5998 19.1463 12.3167 19.8574 14.1069 19.8574Z" fill="#00D924"/>
<path d="M13.8571 6.35742V11.9474C13.8571 12.4374 13.5721 12.8774 13.1221 13.0724L7.77215 15.4524C7.40033 14.451 7.27152 13.3755 7.39631 12.3146C7.52109 11.2536 7.89591 10.2374 8.48994 9.34957C9.08397 8.4617 9.88025 7.7275 10.8133 7.20733C11.7464 6.68716 12.7896 6.39587 13.8571 6.35742Z" fill="url(#paint1_linear_4003_658)"/>
<defs>
<linearGradient id="paint0_linear_4003_658" x1="7.35694" y1="3.53242" x2="7.35694" y2="17.8724" gradientUnits="userSpaceOnUse">
<stop stop-color="#FFD748"/>
<stop offset="1" stop-color="#FFC148"/>
</linearGradient>
<linearGradient id="paint1_linear_4003_658" x1="10.6071" y1="6.36242" x2="10.6071" y2="15.4524" gradientUnits="userSpaceOnUse">
<stop stop-color="#00A600"/>
<stop offset="1" stop-color="#00D924"/>
</linearGradient>
</defs>
</svg>
