<svg width="21" height="21" viewBox="0 0 21 21" fill="none" xmlns="http://www.w3.org/2000/svg">
<path d="M7.09193 0.363037C5.41959 0.468941 3.85263 1.21612 2.71759 2.44885C1.58256 3.68158 0.96702 5.30477 0.999252 6.98015C1.03148 8.65553 1.709 10.2538 2.89061 11.442C4.07221 12.6302 5.66676 13.3165 7.34193 13.358H12.6169C13.3019 13.358 13.8569 12.808 13.8569 12.118V6.86304C13.8584 5.98648 13.6823 5.1187 13.3395 4.31197C12.9966 3.50525 12.494 2.77627 11.862 2.16895C11.2299 1.56163 10.4814 1.08854 9.66163 0.778176C8.84185 0.467812 7.96773 0.326597 7.09193 0.363037Z" fill="url(#paint0_linear_4003_699)"/>
<path d="M14.6219 20.3524C16.2943 20.2465 17.8612 19.4993 18.9963 18.2666C20.1313 17.0339 20.7469 15.4107 20.7146 13.7353C20.6824 12.0599 20.0049 10.4616 18.8233 9.27344C17.6417 8.08528 16.0471 7.39893 14.3719 7.35742H9.09694C8.76807 7.35742 8.45268 7.48806 8.22013 7.72061C7.98758 7.95315 7.85694 8.26855 7.85694 8.59742V13.8524C7.85551 14.729 8.03152 15.5968 8.37438 16.4035C8.71724 17.2102 9.21984 17.9392 9.85192 18.5465C10.484 19.1538 11.2325 19.6269 12.0522 19.9373C12.872 20.2476 13.7461 20.3889 14.6219 20.3524Z" fill="#0073E6"/>
<path d="M13.8569 7.35656V12.1166C13.8569 12.4454 13.7263 12.7608 13.4937 12.9934C13.2612 13.2259 12.9458 13.3566 12.6169 13.3566H7.85694V8.59656C7.85628 8.2811 7.97588 7.97724 8.1914 7.74686C8.40691 7.51649 8.70213 7.37691 9.01694 7.35656L9.09694 7.35156H13.8569V7.35656Z" fill="url(#paint1_linear_4003_699)"/>
<defs>
<linearGradient id="paint0_linear_4003_699" x1="7.35693" y1="1.21304" x2="7.35693" y2="7.98304" gradientUnits="userSpaceOnUse">
<stop stop-color="#11EFE3"/>
<stop offset="0.33" stop-color="#15E8E2"/>
<stop offset="0.74" stop-color="#1FD3E0"/>
<stop offset="1" stop-color="#21CFE0"/>
</linearGradient>
<linearGradient id="paint1_linear_4003_699" x1="10.8569" y1="8.21656" x2="10.8569" y2="13.9766" gradientUnits="userSpaceOnUse">
<stop stop-color="#00299C"/>
<stop offset="1" stop-color="#0073E6"/>
</linearGradient>
</defs>
</svg>
